<?xml version="1.0" encoding="UTF-8" standalone="no"?>
<!DOCTYPE svg PUBLIC "-//W3C//DTD SVG 1.1//EN"
 "http://www.w3.org/Graphics/SVG/1.1/DTD/svg11.dtd">
<!-- Generated by graphviz version 8.0.5 (20230430.1635)
 -->
<!-- Pages: 1 -->
<svg width="1863pt" height="357pt"
 viewBox="0.00 0.00 1862.61 357.00" xmlns="http://www.w3.org/2000/svg" xmlns:xlink="http://www.w3.org/1999/xlink">
<g id="graph0" class="graph" transform="scale(1 1) rotate(0) translate(36 321)">
<polygon fill="#f5f5f5" stroke="none" points="-36,36 -36,-321 1826.61,-321 1826.61,36 -36,36"/>
<!-- 1&#45;&gt;2 -->
<g id="edge1" class="edge">
<title>1&#45;&gt;2</title>
<path fill="none" stroke="#a9a9a9" stroke-width="1.5" d="M755.68,-260.05C672.28,-251.63 519.31,-234.82 389.81,-213 293.75,-196.82 183.04,-171.78 118.71,-156.59"/>
<polygon fill="#a9a9a9" stroke="#a9a9a9" stroke-width="1.5" points="119.52,-154.51 114.25,-155.06 118.71,-157.91 119.52,-154.51"/>
<text text-anchor="middle" x="413.43" y="-199.7" font-family="Times,serif" font-size="14.00">involves</text>
</g>
<!-- 1&#45;&gt;3 -->
<g id="edge2" class="edge">
<title>1&#45;&gt;3</title>
<path fill="none" stroke="#a9a9a9" stroke-width="1.5" d="M761.21,-257.04C700.73,-247.19 601.94,-230.43 517.31,-213 430.78,-195.18 330.86,-170.81 272.41,-156.17"/>
<polygon fill="#a9a9a9" stroke="#a9a9a9" stroke-width="1.5" points="273.11,-154.04 267.83,-154.52 272.26,-157.43 273.11,-154.04"/>
<text text-anchor="middle" x="529.18" y="-199.7" font-family="Times,serif" font-size="14.00">uses</text>
</g>
<!-- 1&#45;&gt;4 -->
<g id="edge3" class="edge">
<title>1&#45;&gt;4</title>
<path fill="none" stroke="#a9a9a9" stroke-width="1.5" d="M769.29,-254.26C726.85,-243.82 663.46,-227.94 608.56,-213 540.86,-194.58 462.89,-171.57 414.92,-157.2"/>
<polygon fill="#a9a9a9" stroke="#a9a9a9" stroke-width="1.5" points="415.64,-154.99 410.35,-155.23 414.64,-158.34 415.64,-154.99"/>
<text text-anchor="middle" x="634.06" y="-199.7" font-family="Times,serif" font-size="14.00">related to</text>
</g>
<!-- 1&#45;&gt;5 -->
<g id="edge4" class="edge">
<title>1&#45;&gt;5</title>
<path fill="none" stroke="#a9a9a9" stroke-width="1.5" d="M784.82,-250.98C736.24,-228.69 645.12,-186.89 591.97,-162.5"/>
<polygon fill="#a9a9a9" stroke="#a9a9a9" stroke-width="1.5" points="592.96,-160.11 587.68,-159.62 591.5,-163.29 592.96,-160.11"/>
<text text-anchor="middle" x="720.81" y="-199.7" font-family="Times,serif" font-size="14.00">enables</text>
</g>
<!-- 1&#45;&gt;7 -->
<g id="edge6" class="edge">
<title>1&#45;&gt;7</title>
<path fill="none" stroke="#a9a9a9" stroke-width="1.5" d="M806.43,-248.97C792.34,-227.39 768.02,-190.14 752.37,-166.18"/>
<polygon fill="#a9a9a9" stroke="#a9a9a9" stroke-width="1.5" points="753.78,-164.62 749.59,-161.39 750.85,-166.53 753.78,-164.62"/>
<text text-anchor="middle" x="798.31" y="-199.7" font-family="Times,serif" font-size="14.00">stores</text>
</g>
<!-- 1&#45;&gt;8 -->
<g id="edge7" class="edge">
<title>1&#45;&gt;8</title>
<path fill="none" stroke="#a9a9a9" stroke-width="1.5" d="M828.68,-248.97C842.77,-227.39 867.1,-190.14 882.75,-166.18"/>
<polygon fill="#a9a9a9" stroke="#a9a9a9" stroke-width="1.5" points="884.26,-166.53 885.53,-161.39 881.33,-164.62 884.26,-166.53"/>
<text text-anchor="middle" x="881.68" y="-199.7" font-family="Times,serif" font-size="14.00">applies</text>
</g>
<!-- 1&#45;&gt;9 -->
<g id="edge8" class="edge">
<title>1&#45;&gt;9</title>
<path fill="none" stroke="#a9a9a9" stroke-width="1.5" d="M851.61,-251.1C902.55,-228.81 998.56,-186.81 1054.37,-162.4"/>
<polygon fill="#a9a9a9" stroke="#a9a9a9" stroke-width="1.5" points="1054.75,-163.26 1058.63,-159.65 1053.35,-160.05 1054.75,-163.26"/>
<text text-anchor="middle" x="993.68" y="-199.7" font-family="Times,serif" font-size="14.00">applies</text>
</g>
<!-- 1&#45;&gt;10 -->
<g id="edge9" class="edge">
<title>1&#45;&gt;10</title>
<path fill="none" stroke="#a9a9a9" stroke-width="1.5" d="M865.28,-254.14C956.1,-231.57 1153.54,-182.51 1252.12,-158.02"/>
<polygon fill="#a9a9a9" stroke="#a9a9a9" stroke-width="1.5" points="1252.32,-159.28 1256.76,-156.37 1251.48,-155.88 1252.32,-159.28"/>
<text text-anchor="middle" x="1117.43" y="-199.7" font-family="Times,serif" font-size="14.00">involves</text>
</g>
<!-- 1&#45;&gt;11 -->
<g id="edge10" class="edge">
<title>1&#45;&gt;11</title>
<path fill="none" stroke="#a9a9a9" stroke-width="1.5" d="M874.97,-257.61C941.26,-247.73 1053.51,-230.47 1149.56,-213 1264.26,-192.14 1292.52,-184.73 1406.56,-160.5 1414.3,-158.85 1422.47,-157.09 1430.48,-155.33"/>
<polygon fill="#a9a9a9" stroke="#a9a9a9" stroke-width="1.5" points="1430.66,-156.65 1435.16,-153.87 1429.91,-153.23 1430.66,-156.65"/>
<text text-anchor="middle" x="1254.81" y="-199.7" font-family="Times,serif" font-size="14.00">enables</text>
</g>
<!-- 1&#45;&gt;12 -->
<g id="edge11" class="edge">
<title>1&#45;&gt;12</title>
<path fill="none" stroke="#a9a9a9" stroke-width="1.5" d="M879.51,-260.11C968.94,-251.36 1139.28,-233.69 1283.56,-213 1397.67,-196.64 1529.22,-172.9 1609.62,-157.83"/>
<polygon fill="#a9a9a9" stroke="#a9a9a9" stroke-width="1.5" points="1609.69,-159.23 1614.28,-156.59 1609.04,-155.79 1609.69,-159.23"/>
<text text-anchor="middle" x="1392.56" y="-199.7" font-family="Times,serif" font-size="14.00">has</text>
</g>
<!-- 5&#45;&gt;6 -->
<g id="edge5" class="edge">
<title>5&#45;&gt;6</title>
<path fill="none" stroke="#a9a9a9" stroke-width="1.5" d="M550.56,-124.21C550.56,-103.05 550.56,-67.1 550.56,-43.2"/>
<polygon fill="#a9a9a9" stroke="#a9a9a9" stroke-width="1.5" points="552.31,-43.2 550.56,-38.2 548.81,-43.2 552.31,-43.2"/>
<text text-anchor="middle" x="580.93" y="-75.2" font-family="Times,serif" font-size="14.00">is a type of</text>
</g>
<!-- 1 -->
<g id="node1" class="node">
<title>1</title>
<ellipse fill="none" stroke="#ff0000" cx="817.56" cy="-267" rx="66.46" ry="18"/>
<text text-anchor="middle" x="817.56" y="-262.73" font-family="Times,serif" font-size="12.00">Knowledge Graph</text>
</g>
<!-- 2 -->
<g id="node2" class="node">
<title>2</title>
<ellipse fill="none" stroke="#ff3300" cx="64.56" cy="-142.5" rx="64.56" ry="18"/>
<text text-anchor="middle" x="64.56" y="-138.22" font-family="Times,serif" font-size="12.00">Conceptualization</text>
</g>
<!-- 3 -->
<g id="node3" class="node">
<title>3</title>
<ellipse fill="none" stroke="#ff6600" cx="222.56" cy="-142.5" rx="57.4" ry="18"/>
<text text-anchor="middle" x="222.56" y="-138.22" font-family="Times,serif" font-size="12.00">Structured Data</text>
</g>
<!-- 4 -->
<g id="node4" class="node">
<title>4</title>
<ellipse fill="none" stroke="#ff9900" cx="369.56" cy="-142.5" rx="53.11" ry="18"/>
<text text-anchor="middle" x="369.56" y="-138.22" font-family="Times,serif" font-size="12.00">Semantic Web</text>
</g>
<!-- 5 -->
<g id="node5" class="node">
<title>5</title>
<ellipse fill="none" stroke="#ffcc00" cx="550.56" cy="-142.5" rx="92.22" ry="18"/>
<text text-anchor="middle" x="550.56" y="-138.22" font-family="Times,serif" font-size="12.00">Knowledge Representation</text>
</g>
<!-- 6 -->
<g id="node6" class="node">
<title>6</title>
<ellipse fill="none" stroke="#ffff00" cx="550.56" cy="-18" rx="38.8" ry="18"/>
<text text-anchor="middle" x="550.56" y="-13.72" font-family="Times,serif" font-size="12.00">Ontology</text>
</g>
<!-- 7 -->
<g id="node7" class="node">
<title>7</title>
<ellipse fill="none" stroke="#ccff00" cx="737.56" cy="-142.5" rx="58.83" ry="18"/>
<text text-anchor="middle" x="737.56" y="-138.22" font-family="Times,serif" font-size="12.00">Graph Database</text>
</g>
<!-- 8 -->
<g id="node8" class="node">
<title>8</title>
<ellipse fill="none" stroke="#99ff00" cx="897.56" cy="-142.5" rx="65.51" ry="18"/>
<text text-anchor="middle" x="897.56" y="-138.22" font-family="Times,serif" font-size="12.00">Machine Learning</text>
</g>
<!-- 9 -->
<g id="node9" class="node">
<title>9</title>
<ellipse fill="none" stroke="#66ff00" cx="1097.56" cy="-142.5" rx="98.9" ry="18"/>
<text text-anchor="middle" x="1097.56" y="-138.22" font-family="Times,serif" font-size="12.00">Natural Language Processing</text>
</g>
<!-- 10 -->
<g id="node10" class="node">
<title>10</title>
<ellipse fill="none" stroke="#33ff00" cx="1310.56" cy="-142.5" rx="78.39" ry="18"/>
<text text-anchor="middle" x="1310.56" y="-138.22" font-family="Times,serif" font-size="12.00">Knowledge Extraction</text>
</g>
<!-- 11 -->
<g id="node11" class="node">
<title>11</title>
<ellipse fill="none" stroke="#00ff00" cx="1483.56" cy="-142.5" rx="58.83" ry="18"/>
<text text-anchor="middle" x="1483.56" y="-138.22" font-family="Times,serif" font-size="12.00">Data Integration</text>
</g>
<!-- 12 -->
<g id="node12" class="node">
<title>12</title>
<ellipse fill="none" stroke="#00ff33" cx="1684.56" cy="-142.5" rx="106.06" ry="18"/>
<text text-anchor="middle" x="1684.56" y="-138.22" font-family="Times,serif" font-size="12.00">Knowledge Graph Applications</text>
</g>
</g>
</svg>
