<?xml version="1.0" encoding="UTF-8" standalone="no"?>
<!DOCTYPE svg PUBLIC "-//W3C//DTD SVG 1.1//EN"
 "http://www.w3.org/Graphics/SVG/1.1/DTD/svg11.dtd">
<!-- Generated by graphviz version 8.0.5 (20230430.1635)
 -->
<!-- Pages: 1 -->
<svg width="3345pt" height="606pt"
 viewBox="0.00 0.00 3344.54 606.00" xmlns="http://www.w3.org/2000/svg" xmlns:xlink="http://www.w3.org/1999/xlink">
<g id="graph0" class="graph" transform="scale(1 1) rotate(0) translate(36 570)">
<polygon fill="#f5f5f5" stroke="none" points="-36,36 -36,-570 3308.54,-570 3308.54,36 -36,36"/>
<!-- 1&#45;&gt;2 -->
<g id="edge1" class="edge">
<title>1&#45;&gt;2</title>
<path fill="none" stroke="#a9a9a9" stroke-width="1.5" d="M706.13,-505.99C653.84,-485.33 524.73,-434.31 458.91,-408.3"/>
<polygon fill="#a9a9a9" stroke="#a9a9a9" stroke-width="1.5" points="460.03,-406.07 454.74,-405.86 458.75,-409.33 460.03,-406.07"/>
<text text-anchor="middle" x="623.3" y="-448.7" font-family="Times,serif" font-size="14.00">is a type of</text>
</g>
<!-- 1&#45;&gt;12 -->
<g id="edge2" class="edge">
<title>1&#45;&gt;12</title>
<path fill="none" stroke="#a9a9a9" stroke-width="1.5" d="M755.28,-510.92C863.47,-494.19 1275.92,-430.4 1446.45,-404.02"/>
<polygon fill="#a9a9a9" stroke="#a9a9a9" stroke-width="1.5" points="1446.48,-405.48 1451.15,-402.98 1445.94,-402.02 1446.48,-405.48"/>
<text text-anchor="middle" x="1223.92" y="-448.7" font-family="Times,serif" font-size="14.00">factors influencing</text>
</g>
<!-- 2&#45;&gt;3 -->
<g id="edge3" class="edge">
<title>2&#45;&gt;3</title>
<path fill="none" stroke="#a9a9a9" stroke-width="1.5" d="M372.64,-382.17C327.99,-373.46 258.87,-358.16 201.17,-337.5 161.71,-323.37 118.7,-301.78 90,-286.41"/>
<polygon fill="#a9a9a9" stroke="#a9a9a9" stroke-width="1.5" points="90.33,-285.06 85.1,-284.23 88.67,-288.14 90.33,-285.06"/>
<text text-anchor="middle" x="232.3" y="-324.2" font-family="Times,serif" font-size="14.00">is a type of</text>
</g>
<!-- 2&#45;&gt;4 -->
<g id="edge4" class="edge">
<title>2&#45;&gt;4</title>
<path fill="none" stroke="#a9a9a9" stroke-width="1.5" d="M382.87,-377.86C357.34,-368.28 322.7,-353.98 294.17,-337.5 269.47,-323.23 243.73,-303.36 225.74,-288.51"/>
<polygon fill="#a9a9a9" stroke="#a9a9a9" stroke-width="1.5" points="226.37,-286.93 221.41,-285.08 224.13,-289.62 226.37,-286.93"/>
<text text-anchor="middle" x="325.3" y="-324.2" font-family="Times,serif" font-size="14.00">is a type of</text>
</g>
<!-- 2&#45;&gt;5 -->
<g id="edge5" class="edge">
<title>2&#45;&gt;5</title>
<path fill="none" stroke="#a9a9a9" stroke-width="1.5" d="M402.32,-374.4C392.66,-364.41 380.74,-350.96 372.17,-337.5 363.07,-323.19 355.46,-305.67 350.16,-291.8"/>
<polygon fill="#a9a9a9" stroke="#a9a9a9" stroke-width="1.5" points="351.12,-291.39 347.74,-287.31 347.84,-292.61 351.12,-291.39"/>
<text text-anchor="middle" x="403.3" y="-324.2" font-family="Times,serif" font-size="14.00">is a type of</text>
</g>
<!-- 2&#45;&gt;6 -->
<g id="edge6" class="edge">
<title>2&#45;&gt;6</title>
<path fill="none" stroke="#a9a9a9" stroke-width="1.5" d="M426.12,-373.21C435.01,-351.87 450.16,-315.48 460.1,-291.59"/>
<polygon fill="#a9a9a9" stroke="#a9a9a9" stroke-width="1.5" points="462.46,-292.49 462.76,-287.2 459.22,-291.15 462.46,-292.49"/>
<text text-anchor="middle" x="478.3" y="-324.2" font-family="Times,serif" font-size="14.00">is a type of</text>
</g>
<!-- 2&#45;&gt;7 -->
<g id="edge7" class="edge">
<title>2&#45;&gt;7</title>
<path fill="none" stroke="#a9a9a9" stroke-width="1.5" d="M448.03,-376.09C468.03,-365.9 495.01,-351.6 517.92,-337.5 542.93,-322.1 570.16,-302.79 589.72,-288.43"/>
<polygon fill="#a9a9a9" stroke="#a9a9a9" stroke-width="1.5" points="591.04,-289.89 594.03,-285.52 588.97,-287.08 591.04,-289.89"/>
<text text-anchor="middle" x="574.3" y="-324.2" font-family="Times,serif" font-size="14.00">is a type of</text>
</g>
<!-- 3&#45;&gt;8 -->
<g id="edge8" class="edge">
<title>3&#45;&gt;8</title>
<path fill="none" stroke="#a9a9a9" stroke-width="1.5" d="M56.92,-248.71C56.92,-227.55 56.92,-191.6 56.92,-167.7"/>
<polygon fill="#a9a9a9" stroke="#a9a9a9" stroke-width="1.5" points="58.67,-167.7 56.92,-162.7 55.17,-167.7 58.67,-167.7"/>
<text text-anchor="middle" x="96.67" y="-199.7" font-family="Times,serif" font-size="14.00">is a subtype of</text>
</g>
<!-- 4&#45;&gt;9 -->
<g id="edge9" class="edge">
<title>4&#45;&gt;9</title>
<path fill="none" stroke="#a9a9a9" stroke-width="1.5" d="M201.92,-248.71C201.92,-227.55 201.92,-191.6 201.92,-167.7"/>
<polygon fill="#a9a9a9" stroke="#a9a9a9" stroke-width="1.5" points="203.67,-167.7 201.92,-162.7 200.17,-167.7 203.67,-167.7"/>
<text text-anchor="middle" x="241.67" y="-199.7" font-family="Times,serif" font-size="14.00">is a subtype of</text>
</g>
<!-- 5&#45;&gt;10 -->
<g id="edge10" class="edge">
<title>5&#45;&gt;10</title>
<path fill="none" stroke="#a9a9a9" stroke-width="1.5" d="M341.92,-248.71C341.92,-227.55 341.92,-191.6 341.92,-167.7"/>
<polygon fill="#a9a9a9" stroke="#a9a9a9" stroke-width="1.5" points="343.67,-167.7 341.92,-162.7 340.17,-167.7 343.67,-167.7"/>
<text text-anchor="middle" x="381.67" y="-199.7" font-family="Times,serif" font-size="14.00">is a subtype of</text>
</g>
<!-- 7&#45;&gt;11 -->
<g id="edge11" class="edge">
<title>7&#45;&gt;11</title>
<path fill="none" stroke="#a9a9a9" stroke-width="1.5" d="M588.92,-250.09C575.45,-240.97 560.33,-228.3 551.42,-213 543.51,-199.41 540.65,-181.94 539.75,-167.91"/>
<polygon fill="#a9a9a9" stroke="#a9a9a9" stroke-width="1.5" points="541.42,-167.85 539.45,-162.93 537.92,-168 541.42,-167.85"/>
<text text-anchor="middle" x="591.67" y="-199.7" font-family="Times,serif" font-size="14.00">is a subtype of</text>
</g>
<!-- 12&#45;&gt;13 -->
<g id="edge12" class="edge">
<title>12&#45;&gt;13</title>
<path fill="none" stroke="#a9a9a9" stroke-width="1.5" d="M1477.99,-375.6C1408.36,-351.44 1271.92,-304.09 1205.73,-281.12"/>
<polygon fill="#a9a9a9" stroke="#a9a9a9" stroke-width="1.5" points="1206.47,-278.83 1201.17,-278.84 1205.32,-282.14 1206.47,-278.83"/>
<text text-anchor="middle" x="1388.42" y="-324.2" font-family="Times,serif" font-size="14.00">includes</text>
</g>
<!-- 12&#45;&gt;23 -->
<g id="edge13" class="edge">
<title>12&#45;&gt;23</title>
<path fill="none" stroke="#a9a9a9" stroke-width="1.5" d="M1558.08,-374.86C1611.78,-352.25 1710.91,-310.52 1768.11,-286.44"/>
<polygon fill="#a9a9a9" stroke="#a9a9a9" stroke-width="1.5" points="1768.61,-287.29 1772.53,-283.74 1767.25,-284.07 1768.61,-287.29"/>
<text text-anchor="middle" x="1705.3" y="-324.2" font-family="Times,serif" font-size="14.00">sustains</text>
</g>
<!-- 12&#45;&gt;29 -->
<g id="edge14" class="edge">
<title>12&#45;&gt;29</title>
<path fill="none" stroke="#a9a9a9" stroke-width="1.5" d="M1595.24,-382.03C1793.8,-359.41 2334.63,-297.78 2526.93,-275.86"/>
<polygon fill="#a9a9a9" stroke="#a9a9a9" stroke-width="1.5" points="2526.85,-277.4 2531.62,-275.1 2526.45,-273.93 2526.85,-277.4"/>
<text text-anchor="middle" x="2178.05" y="-324.2" font-family="Times,serif" font-size="14.00">poses challenges for</text>
</g>
<!-- 13&#45;&gt;14 -->
<g id="edge15" class="edge">
<title>13&#45;&gt;14</title>
<path fill="none" stroke="#a9a9a9" stroke-width="1.5" d="M1131.69,-258.87C1083.77,-249.28 996.8,-231.3 923.17,-213 854.84,-196.01 776.73,-173.54 726.91,-158.81"/>
<polygon fill="#a9a9a9" stroke="#a9a9a9" stroke-width="1.5" points="727.66,-156.62 722.37,-156.87 726.67,-159.97 727.66,-156.62"/>
<text text-anchor="middle" x="954.3" y="-199.7" font-family="Times,serif" font-size="14.00">is a type of</text>
</g>
<!-- 13&#45;&gt;15 -->
<g id="edge16" class="edge">
<title>13&#45;&gt;15</title>
<path fill="none" stroke="#a9a9a9" stroke-width="1.5" d="M1138.2,-254.37C1082.95,-232.74 964.18,-186.26 899.36,-160.89"/>
<polygon fill="#a9a9a9" stroke="#a9a9a9" stroke-width="1.5" points="900.17,-158.55 894.88,-158.35 898.89,-161.81 900.17,-158.55"/>
<text text-anchor="middle" x="1048.92" y="-199.7" font-family="Times,serif" font-size="14.00">affects</text>
</g>
<!-- 13&#45;&gt;16 -->
<g id="edge17" class="edge">
<title>13&#45;&gt;16</title>
<path fill="none" stroke="#a9a9a9" stroke-width="1.5" d="M1149.94,-250.49C1124.65,-228.67 1078.5,-188.86 1050.19,-164.43"/>
<polygon fill="#a9a9a9" stroke="#a9a9a9" stroke-width="1.5" points="1051.05,-163 1046.12,-161.06 1048.76,-165.65 1051.05,-163"/>
<text text-anchor="middle" x="1123.92" y="-199.7" font-family="Times,serif" font-size="14.00">affects</text>
</g>
<!-- 13&#45;&gt;17 -->
<g id="edge18" class="edge">
<title>13&#45;&gt;17</title>
<path fill="none" stroke="#a9a9a9" stroke-width="1.5" d="M1167.92,-248.71C1167.92,-227.55 1167.92,-191.6 1167.92,-167.7"/>
<polygon fill="#a9a9a9" stroke="#a9a9a9" stroke-width="1.5" points="1169.67,-167.7 1167.92,-162.7 1166.17,-167.7 1169.67,-167.7"/>
<text text-anchor="middle" x="1211.42" y="-199.7" font-family="Times,serif" font-size="14.00">is influenced by</text>
</g>
<!-- 13&#45;&gt;18 -->
<g id="edge19" class="edge">
<title>13&#45;&gt;18</title>
<path fill="none" stroke="#a9a9a9" stroke-width="1.5" d="M1197.36,-254.6C1217.8,-245.59 1244.71,-231.47 1263.92,-213 1277.62,-199.83 1288.53,-181.27 1295.8,-166.64"/>
<polygon fill="#a9a9a9" stroke="#a9a9a9" stroke-width="1.5" points="1298.1,-167.9 1298.69,-162.64 1294.94,-166.39 1298.1,-167.9"/>
<text text-anchor="middle" x="1321.42" y="-199.7" font-family="Times,serif" font-size="14.00">is influenced by</text>
</g>
<!-- 13&#45;&gt;19 -->
<g id="edge20" class="edge">
<title>13&#45;&gt;19</title>
<path fill="none" stroke="#a9a9a9" stroke-width="1.5" d="M1205.96,-260.88C1248.53,-254.11 1318.78,-239.78 1373.92,-213 1399.53,-200.57 1424.96,-180.3 1442.4,-164.85"/>
<polygon fill="#a9a9a9" stroke="#a9a9a9" stroke-width="1.5" points="1444,-165.87 1446.55,-161.23 1441.66,-163.27 1444,-165.87"/>
<text text-anchor="middle" x="1445.42" y="-199.7" font-family="Times,serif" font-size="14.00">is influenced by</text>
</g>
<!-- 19&#45;&gt;20 -->
<g id="edge21" class="edge">
<title>19&#45;&gt;20</title>
<path fill="none" stroke="#a9a9a9" stroke-width="1.5" d="M1436.8,-125.98C1419.1,-115.88 1395.97,-102.11 1376.42,-88.5 1354.5,-73.24 1330.95,-54.12 1313.97,-39.8"/>
<polygon fill="#a9a9a9" stroke="#a9a9a9" stroke-width="1.5" points="1314.86,-38.42 1309.92,-36.52 1312.6,-41.09 1314.86,-38.42"/>
<text text-anchor="middle" x="1416.67" y="-75.2" font-family="Times,serif" font-size="14.00">is a subtype of</text>
</g>
<!-- 19&#45;&gt;21 -->
<g id="edge22" class="edge">
<title>19&#45;&gt;21</title>
<path fill="none" stroke="#a9a9a9" stroke-width="1.5" d="M1464.92,-124.21C1464.92,-103.05 1464.92,-67.1 1464.92,-43.2"/>
<polygon fill="#a9a9a9" stroke="#a9a9a9" stroke-width="1.5" points="1466.67,-43.2 1464.92,-38.2 1463.17,-43.2 1466.67,-43.2"/>
<text text-anchor="middle" x="1504.67" y="-75.2" font-family="Times,serif" font-size="14.00">is a subtype of</text>
</g>
<!-- 19&#45;&gt;22 -->
<g id="edge23" class="edge">
<title>19&#45;&gt;22</title>
<path fill="none" stroke="#a9a9a9" stroke-width="1.5" d="M1492.3,-125.91C1509.88,-115.68 1533.06,-101.78 1552.92,-88.5 1576.16,-72.96 1601.61,-54.02 1620.16,-39.84"/>
<polygon fill="#a9a9a9" stroke="#a9a9a9" stroke-width="1.5" points="1621.78,-41.03 1624.69,-36.6 1619.65,-38.26 1621.78,-41.03"/>
<text text-anchor="middle" x="1616.67" y="-75.2" font-family="Times,serif" font-size="14.00">is a subtype of</text>
</g>
<!-- 23&#45;&gt;24 -->
<g id="edge24" class="edge">
<title>23&#45;&gt;24</title>
<path fill="none" stroke="#a9a9a9" stroke-width="1.5" d="M1736.03,-257.1C1704.72,-249.86 1670.25,-236.75 1646.42,-213 1634.35,-200.97 1628.75,-182.41 1626.16,-167.5"/>
<polygon fill="#a9a9a9" stroke="#a9a9a9" stroke-width="1.5" points="1627.64,-167.62 1625.17,-162.94 1624.18,-168.14 1627.64,-167.62"/>
<text text-anchor="middle" x="1689.67" y="-199.7" font-family="Times,serif" font-size="14.00">is important for</text>
</g>
<!-- 23&#45;&gt;25 -->
<g id="edge25" class="edge">
<title>23&#45;&gt;25</title>
<path fill="none" stroke="#a9a9a9" stroke-width="1.5" d="M1781.03,-249.86C1767.46,-240.97 1752.92,-228.56 1745.42,-213 1738.62,-198.88 1739.36,-181.22 1741.74,-167.23"/>
<polygon fill="#a9a9a9" stroke="#a9a9a9" stroke-width="1.5" points="1743.78,-167.94 1743.01,-162.7 1740.34,-167.27 1743.78,-167.94"/>
<text text-anchor="middle" x="1788.67" y="-199.7" font-family="Times,serif" font-size="14.00">is important for</text>
</g>
<!-- 23&#45;&gt;26 -->
<g id="edge26" class="edge">
<title>23&#45;&gt;26</title>
<path fill="none" stroke="#a9a9a9" stroke-width="1.5" d="M1820.82,-248.71C1831.9,-227.16 1850.88,-190.25 1863.16,-166.38"/>
<polygon fill="#a9a9a9" stroke="#a9a9a9" stroke-width="1.5" points="1864.55,-167.56 1865.28,-162.31 1861.44,-165.96 1864.55,-167.56"/>
<text text-anchor="middle" x="1890.67" y="-199.7" font-family="Times,serif" font-size="14.00">is important for</text>
</g>
<!-- 23&#45;&gt;27 -->
<g id="edge27" class="edge">
<title>23&#45;&gt;27</title>
<path fill="none" stroke="#a9a9a9" stroke-width="1.5" d="M1862.27,-251.68C1887.62,-242.99 1917.97,-230.2 1941.92,-213 1960.03,-200 1976.25,-180.46 1987.25,-165.41"/>
<polygon fill="#a9a9a9" stroke="#a9a9a9" stroke-width="1.5" points="1988.58,-166.18 1990.06,-161.09 1985.73,-164.14 1988.58,-166.18"/>
<text text-anchor="middle" x="2003.67" y="-199.7" font-family="Times,serif" font-size="14.00">is important for</text>
</g>
<!-- 23&#45;&gt;28 -->
<g id="edge28" class="edge">
<title>23&#45;&gt;28</title>
<path fill="none" stroke="#a9a9a9" stroke-width="1.5" d="M1893.35,-259.27C1942.41,-252.6 2004.87,-239.34 2054.92,-213 2077.21,-201.28 2097.66,-180.99 2111.39,-165.36"/>
<polygon fill="#a9a9a9" stroke="#a9a9a9" stroke-width="1.5" points="2112.85,-166.18 2114.78,-161.25 2110.2,-163.9 2112.85,-166.18"/>
<text text-anchor="middle" x="2121.67" y="-199.7" font-family="Times,serif" font-size="14.00">is important for</text>
</g>
<!-- 29&#45;&gt;30 -->
<g id="edge29" class="edge">
<title>29&#45;&gt;30</title>
<path fill="none" stroke="#a9a9a9" stroke-width="1.5" d="M2531.66,-260.11C2457.42,-252.32 2340.72,-236.74 2303.92,-213 2286.63,-201.84 2273.87,-182.02 2265.87,-166.4"/>
<polygon fill="#a9a9a9" stroke="#a9a9a9" stroke-width="1.5" points="2267.71,-166.14 2263.94,-162.43 2264.57,-167.69 2267.71,-166.14"/>
<text text-anchor="middle" x="2368.42" y="-199.7" font-family="Times,serif" font-size="14.00">is a challenge related to</text>
</g>
<!-- 29&#45;&gt;31 -->
<g id="edge30" class="edge">
<title>29&#45;&gt;31</title>
<path fill="none" stroke="#a9a9a9" stroke-width="1.5" d="M2539.54,-256.24C2510.79,-248.71 2477.1,-235.59 2453.92,-213 2441.4,-200.8 2434.31,-182.25 2430.4,-167.38"/>
<polygon fill="#a9a9a9" stroke="#a9a9a9" stroke-width="1.5" points="2431.69,-167.29 2428.82,-162.85 2428.29,-168.12 2431.69,-167.29"/>
<text text-anchor="middle" x="2518.42" y="-199.7" font-family="Times,serif" font-size="14.00">is a challenge related to</text>
</g>
<!-- 29&#45;&gt;32 -->
<g id="edge31" class="edge">
<title>29&#45;&gt;32</title>
<path fill="none" stroke="#a9a9a9" stroke-width="1.5" d="M2594.3,-248.83C2593.4,-238.47 2592.38,-224.99 2591.92,-213 2591.35,-197.88 2592.3,-180.93 2593.41,-167.55"/>
<polygon fill="#a9a9a9" stroke="#a9a9a9" stroke-width="1.5" points="2595.3,-168.05 2594,-162.91 2591.82,-167.74 2595.3,-168.05"/>
<text text-anchor="middle" x="2656.42" y="-199.7" font-family="Times,serif" font-size="14.00">is a challenge related to</text>
</g>
<!-- 29&#45;&gt;33 -->
<g id="edge32" class="edge">
<title>29&#45;&gt;33</title>
<path fill="none" stroke="#a9a9a9" stroke-width="1.5" d="M2648.9,-255.18C2675.1,-247.4 2705.43,-234.37 2725.92,-213 2737.85,-200.56 2744.15,-182.02 2747.44,-167.22"/>
<polygon fill="#a9a9a9" stroke="#a9a9a9" stroke-width="1.5" points="2749.47,-167.97 2748.74,-162.72 2746.04,-167.28 2749.47,-167.97"/>
<text text-anchor="middle" x="2802.42" y="-199.7" font-family="Times,serif" font-size="14.00">is a challenge related to</text>
</g>
<!-- 29&#45;&gt;34 -->
<g id="edge33" class="edge">
<title>29&#45;&gt;34</title>
<path fill="none" stroke="#a9a9a9" stroke-width="1.5" d="M2664.11,-263.73C2723.04,-259.35 2809.01,-247.04 2875.92,-213 2898.22,-201.66 2918.55,-181.52 2932.23,-165.84"/>
<polygon fill="#a9a9a9" stroke="#a9a9a9" stroke-width="1.5" points="2933.69,-166.65 2935.61,-161.71 2931.03,-164.37 2933.69,-166.65"/>
<text text-anchor="middle" x="2964.42" y="-199.7" font-family="Times,serif" font-size="14.00">is a challenge related to</text>
</g>
<!-- 29&#45;&gt;35 -->
<g id="edge34" class="edge">
<title>29&#45;&gt;35</title>
<path fill="none" stroke="#a9a9a9" stroke-width="1.5" d="M2663.16,-262.86C2769.86,-257.06 2972.58,-242.46 3037.92,-213 3061.99,-202.15 3083.9,-181.17 3098.33,-165.09"/>
<polygon fill="#a9a9a9" stroke="#a9a9a9" stroke-width="1.5" points="3099.95,-165.76 3101.93,-160.84 3097.32,-163.45 3099.95,-165.76"/>
<text text-anchor="middle" x="3129.42" y="-199.7" font-family="Times,serif" font-size="14.00">is a challenge related to</text>
</g>
<!-- 35&#45;&gt;36 -->
<g id="edge35" class="edge">
<title>35&#45;&gt;36</title>
<path fill="none" stroke="#a9a9a9" stroke-width="1.5" d="M3102.29,-125.2C3093.91,-114.91 3083.15,-101.22 3074.42,-88.5 3064.15,-73.53 3053.68,-55.96 3045.82,-42.24"/>
<polygon fill="#a9a9a9" stroke="#a9a9a9" stroke-width="1.5" points="3047.4,-40.71 3043.41,-37.23 3044.35,-42.44 3047.4,-40.71"/>
<text text-anchor="middle" x="3114.67" y="-75.2" font-family="Times,serif" font-size="14.00">is a subtype of</text>
</g>
<!-- 35&#45;&gt;37 -->
<g id="edge36" class="edge">
<title>35&#45;&gt;37</title>
<path fill="none" stroke="#a9a9a9" stroke-width="1.5" d="M3130.18,-125.32C3138.91,-115.08 3150.07,-101.39 3158.92,-88.5 3169.11,-73.67 3179.2,-56.11 3186.7,-42.35"/>
<polygon fill="#a9a9a9" stroke="#a9a9a9" stroke-width="1.5" points="3188.12,-42.55 3188.96,-37.31 3185.04,-40.88 3188.12,-42.55"/>
<text text-anchor="middle" x="3207.67" y="-75.2" font-family="Times,serif" font-size="14.00">is a subtype of</text>
</g>
<!-- 1 -->
<g id="node1" class="node">
<title>1</title>
<ellipse fill="none" stroke="red" cx="728.92" cy="-516" rx="27" ry="18"/>
<text text-anchor="middle" x="728.92" y="-511.73" font-family="Times,serif" font-size="12.00">Love</text>
</g>
<!-- 2 -->
<g id="node2" class="node">
<title>2</title>
<ellipse fill="none" stroke="blue" cx="418.92" cy="-391.5" rx="53.58" ry="18"/>
<text text-anchor="middle" x="418.92" y="-387.23" font-family="Times,serif" font-size="12.00">Types of Love</text>
</g>
<!-- 3 -->
<g id="node3" class="node">
<title>3</title>
<ellipse fill="none" stroke="blue" cx="56.92" cy="-267" rx="56.92" ry="18"/>
<text text-anchor="middle" x="56.92" y="-262.73" font-family="Times,serif" font-size="12.00">Romantic Love</text>
</g>
<!-- 4 -->
<g id="node4" class="node">
<title>4</title>
<ellipse fill="none" stroke="blue" cx="201.92" cy="-267" rx="52.15" ry="18"/>
<text text-anchor="middle" x="201.92" y="-262.73" font-family="Times,serif" font-size="12.00">Platonic Love</text>
</g>
<!-- 5 -->
<g id="node5" class="node">
<title>5</title>
<ellipse fill="none" stroke="blue" cx="341.92" cy="-267" rx="52.15" ry="18"/>
<text text-anchor="middle" x="341.92" y="-262.73" font-family="Times,serif" font-size="12.00">Familial Love</text>
</g>
<!-- 6 -->
<g id="node6" class="node">
<title>6</title>
<ellipse fill="none" stroke="blue" cx="469.92" cy="-267" rx="40.23" ry="18"/>
<text text-anchor="middle" x="469.92" y="-262.73" font-family="Times,serif" font-size="12.00">Self&#45;Love</text>
</g>
<!-- 7 -->
<g id="node7" class="node">
<title>7</title>
<ellipse fill="none" stroke="blue" cx="616.92" cy="-267" rx="70.76" ry="18"/>
<text text-anchor="middle" x="616.92" y="-262.73" font-family="Times,serif" font-size="12.00">Unconditional Love</text>
</g>
<!-- 8 -->
<g id="node8" class="node">
<title>8</title>
<ellipse fill="none" stroke="blue" cx="56.92" cy="-142.5" rx="27" ry="18"/>
<text text-anchor="middle" x="56.92" y="-138.22" font-family="Times,serif" font-size="12.00">Eros</text>
</g>
<!-- 9 -->
<g id="node9" class="node">
<title>9</title>
<ellipse fill="none" stroke="blue" cx="201.92" cy="-142.5" rx="29.73" ry="18"/>
<text text-anchor="middle" x="201.92" y="-138.22" font-family="Times,serif" font-size="12.00">Storge</text>
</g>
<!-- 10 -->
<g id="node10" class="node">
<title>10</title>
<ellipse fill="none" stroke="blue" cx="341.92" cy="-142.5" rx="27.35" ry="18"/>
<text text-anchor="middle" x="341.92" y="-138.22" font-family="Times,serif" font-size="12.00">Philia</text>
</g>
<!-- 11 -->
<g id="node11" class="node">
<title>11</title>
<ellipse fill="none" stroke="blue" cx="539.92" cy="-142.5" rx="30.21" ry="18"/>
<text text-anchor="middle" x="539.92" y="-138.22" font-family="Times,serif" font-size="12.00">Agape</text>
</g>
<!-- 12 -->
<g id="node12" class="node">
<title>12</title>
<ellipse fill="none" stroke="blue" cx="1520.92" cy="-391.5" rx="86.02" ry="18"/>
<text text-anchor="middle" x="1520.92" y="-387.23" font-family="Times,serif" font-size="12.00">Factors Influencing Love</text>
</g>
<!-- 13 -->
<g id="node13" class="node">
<title>13</title>
<ellipse fill="none" stroke="green" cx="1167.92" cy="-267" rx="40.23" ry="18"/>
<text text-anchor="middle" x="1167.92" y="-262.73" font-family="Times,serif" font-size="12.00">Attraction</text>
</g>
<!-- 14 -->
<g id="node14" class="node">
<title>14</title>
<ellipse fill="none" stroke="green" cx="675.92" cy="-142.5" rx="70.28" ry="18"/>
<text text-anchor="middle" x="675.92" y="-138.22" font-family="Times,serif" font-size="12.00">Chemical Attraction</text>
</g>
<!-- 15 -->
<g id="node15" class="node">
<title>15</title>
<ellipse fill="none" stroke="green" cx="854.92" cy="-142.5" rx="73.14" ry="18"/>
<text text-anchor="middle" x="854.92" y="-138.22" font-family="Times,serif" font-size="12.00">Physical Appearance</text>
</g>
<!-- 16 -->
<g id="node16" class="node">
<title>16</title>
<ellipse fill="none" stroke="green" cx="1025.92" cy="-142.5" rx="62.17" ry="18"/>
<text text-anchor="middle" x="1025.92" y="-138.22" font-family="Times,serif" font-size="12.00">Personality Traits</text>
</g>
<!-- 17 -->
<g id="node17" class="node">
<title>17</title>
<ellipse fill="none" stroke="green" cx="1167.92" cy="-142.5" rx="43.57" ry="18"/>
<text text-anchor="middle" x="1167.92" y="-138.22" font-family="Times,serif" font-size="12.00">Similarities</text>
</g>
<!-- 18 -->
<g id="node18" class="node">
<title>18</title>
<ellipse fill="none" stroke="green" cx="1305.92" cy="-142.5" rx="58.36" ry="18"/>
<text text-anchor="middle" x="1305.92" y="-138.22" font-family="Times,serif" font-size="12.00">Cultural Factors</text>
</g>
<!-- 19 -->
<g id="node19" class="node">
<title>19</title>
<ellipse fill="none" stroke="green" cx="1464.92" cy="-142.5" rx="65.03" ry="18"/>
<text text-anchor="middle" x="1464.92" y="-138.22" font-family="Times,serif" font-size="12.00">Attachment Styles</text>
</g>
<!-- 20 -->
<g id="node20" class="node">
<title>20</title>
<ellipse fill="none" stroke="green" cx="1289.92" cy="-18" rx="66.94" ry="18"/>
<text text-anchor="middle" x="1289.92" y="-13.72" font-family="Times,serif" font-size="12.00">Secure Attachment</text>
</g>
<!-- 21 -->
<g id="node21" class="node">
<title>21</title>
<ellipse fill="none" stroke="green" cx="1464.92" cy="-18" rx="72.19" ry="18"/>
<text text-anchor="middle" x="1464.92" y="-13.72" font-family="Times,serif" font-size="12.00">Anxious Attachment</text>
</g>
<!-- 22 -->
<g id="node22" class="node">
<title>22</title>
<ellipse fill="none" stroke="green" cx="1646.92" cy="-18" rx="73.62" ry="18"/>
<text text-anchor="middle" x="1646.92" y="-13.72" font-family="Times,serif" font-size="12.00">Avoidant Attachment</text>
</g>
<!-- 23 -->
<g id="node23" class="node">
<title>23</title>
<ellipse fill="none" stroke="blue" cx="1811.92" cy="-267" rx="89.36" ry="18"/>
<text text-anchor="middle" x="1811.92" y="-262.73" font-family="Times,serif" font-size="12.00">Factors That Sustain Love</text>
</g>
<!-- 24 -->
<g id="node24" class="node">
<title>24</title>
<ellipse fill="none" stroke="green" cx="1623.92" cy="-142.5" rx="58.36" ry="18"/>
<text text-anchor="middle" x="1623.92" y="-138.22" font-family="Times,serif" font-size="12.00">Communication</text>
</g>
<!-- 25 -->
<g id="node25" class="node">
<title>25</title>
<ellipse fill="none" stroke="green" cx="1747.92" cy="-142.5" rx="27" ry="18"/>
<text text-anchor="middle" x="1747.92" y="-138.22" font-family="Times,serif" font-size="12.00">Trust</text>
</g>
<!-- 26 -->
<g id="node26" class="node">
<title>26</title>
<ellipse fill="none" stroke="green" cx="1874.92" cy="-142.5" rx="36.41" ry="18"/>
<text text-anchor="middle" x="1874.92" y="-138.22" font-family="Times,serif" font-size="12.00">Intimacy</text>
</g>
<!-- 27 -->
<g id="node27" class="node">
<title>27</title>
<ellipse fill="none" stroke="green" cx="2001.92" cy="-142.5" rx="37.37" ry="18"/>
<text text-anchor="middle" x="2001.92" y="-138.22" font-family="Times,serif" font-size="12.00">Empathy</text>
</g>
<!-- 28 -->
<g id="node28" class="node">
<title>28</title>
<ellipse fill="none" stroke="green" cx="2128.92" cy="-142.5" rx="49.29" ry="18"/>
<text text-anchor="middle" x="2128.92" y="-138.22" font-family="Times,serif" font-size="12.00">Commitment</text>
</g>
<!-- 29 -->
<g id="node29" class="node">
<title>29</title>
<ellipse fill="none" stroke="blue" cx="2595.92" cy="-267" rx="68.85" ry="18"/>
<text text-anchor="middle" x="2595.92" y="-262.73" font-family="Times,serif" font-size="12.00">Challenges in Love</text>
</g>
<!-- 30 -->
<g id="node30" class="node">
<title>30</title>
<ellipse fill="none" stroke="green" cx="2255.92" cy="-142.5" rx="35.94" ry="18"/>
<text text-anchor="middle" x="2255.92" y="-138.22" font-family="Times,serif" font-size="12.00">Jealousy</text>
</g>
<!-- 31 -->
<g id="node31" class="node">
<title>31</title>
<ellipse fill="none" stroke="green" cx="2425.92" cy="-142.5" rx="37.37" ry="18"/>
<text text-anchor="middle" x="2425.92" y="-138.22" font-family="Times,serif" font-size="12.00">Infidelity</text>
</g>
<!-- 32 -->
<g id="node32" class="node">
<title>32</title>
<ellipse fill="none" stroke="green" cx="2595.92" cy="-142.5" rx="34.5" ry="18"/>
<text text-anchor="middle" x="2595.92" y="-138.22" font-family="Times,serif" font-size="12.00">Conflict</text>
</g>
<!-- 33 -->
<g id="node33" class="node">
<title>33</title>
<ellipse fill="none" stroke="green" cx="2750.92" cy="-142.5" rx="78.39" ry="18"/>
<text text-anchor="middle" x="2750.92" y="-138.22" font-family="Times,serif" font-size="12.00">Communication Issues</text>
</g>
<!-- 34 -->
<g id="node34" class="node">
<title>34</title>
<ellipse fill="none" stroke="green" cx="2949.92" cy="-142.5" rx="84.59" ry="18"/>
<text text-anchor="middle" x="2949.92" y="-138.22" font-family="Times,serif" font-size="12.00">Relationship Satisfaction</text>
</g>
<!-- 35 -->
<g id="node35" class="node">
<title>35</title>
<ellipse fill="none" stroke="green" cx="3115.92" cy="-142.5" rx="41.18" ry="18"/>
<text text-anchor="middle" x="3115.92" y="-138.22" font-family="Times,serif" font-size="12.00">Longevity</text>
</g>
<!-- 36 -->
<g id="node36" class="node">
<title>36</title>
<ellipse fill="none" stroke="blue" cx="3032.92" cy="-18" rx="55.97" ry="18"/>
<text text-anchor="middle" x="3032.92" y="-13.72" font-family="Times,serif" font-size="12.00">Enduring Love</text>
</g>
<!-- 37 -->
<g id="node37" class="node">
<title>37</title>
<ellipse fill="none" stroke="blue" cx="3198.92" cy="-18" rx="73.62" ry="18"/>
<text text-anchor="middle" x="3198.92" y="-13.72" font-family="Times,serif" font-size="12.00">Compassionate Love</text>
</g>
</g>
</svg>
