<?xml version="1.0" encoding="UTF-8" standalone="no"?>
<!DOCTYPE svg PUBLIC "-//W3C//DTD SVG 1.1//EN"
 "http://www.w3.org/Graphics/SVG/1.1/DTD/svg11.dtd">
<!-- Generated by graphviz version 8.0.5 (20230430.1635)
 -->
<!-- Pages: 1 -->
<svg width="2429pt" height="482pt"
 viewBox="0.00 0.00 2429.14 481.50" xmlns="http://www.w3.org/2000/svg" xmlns:xlink="http://www.w3.org/1999/xlink">
<g id="graph0" class="graph" transform="scale(1 1) rotate(0) translate(36 445.5)">
<polygon fill="#f5f5f5" stroke="none" points="-36,36 -36,-445.5 2393.14,-445.5 2393.14,36 -36,36"/>
<!-- 1&#45;&gt;2 -->
<g id="edge1" class="edge">
<title>1&#45;&gt;2</title>
<path fill="none" stroke="#a9a9a9" stroke-width="1.5" d="M1511.87,-373.47C1495.34,-351.92 1466.81,-314.75 1448.42,-290.78"/>
<polygon fill="#a9a9a9" stroke="#a9a9a9" stroke-width="1.5" points="1449.64,-289.18 1445.2,-286.28 1446.86,-291.32 1449.64,-289.18"/>
<text text-anchor="middle" x="1514.32" y="-324.2" font-family="Times,serif" font-size="14.00">is a type of</text>
</g>
<!-- 1&#45;&gt;3 -->
<g id="edge2" class="edge">
<title>1&#45;&gt;3</title>
<path fill="none" stroke="#a9a9a9" stroke-width="1.5" d="M1538.01,-373.47C1554.73,-351.68 1583.72,-313.9 1602.08,-289.97"/>
<polygon fill="#a9a9a9" stroke="#a9a9a9" stroke-width="1.5" points="1603.63,-290.53 1605.28,-285.5 1600.85,-288.4 1603.63,-290.53"/>
<text text-anchor="middle" x="1609.57" y="-324.2" font-family="Times,serif" font-size="14.00">is used with</text>
</g>
<!-- 2&#45;&gt;4 -->
<g id="edge3" class="edge">
<title>2&#45;&gt;4</title>
<path fill="none" stroke="#a9a9a9" stroke-width="1.5" d="M1342.78,-256.18C1128,-232.26 581.6,-171.41 394.74,-150.6"/>
<polygon fill="#a9a9a9" stroke="#a9a9a9" stroke-width="1.5" points="395.14,-148.67 389.98,-149.85 394.75,-152.14 395.14,-148.67"/>
<text text-anchor="middle" x="997.94" y="-199.7" font-family="Times,serif" font-size="14.00">is implemented by</text>
</g>
<!-- 2&#45;&gt;5 -->
<g id="edge4" class="edge">
<title>2&#45;&gt;5</title>
<path fill="none" stroke="#a9a9a9" stroke-width="1.5" d="M1434.61,-248.71C1439.12,-227.46 1446.8,-191.29 1451.87,-167.4"/>
<polygon fill="#a9a9a9" stroke="#a9a9a9" stroke-width="1.5" points="1453.96,-167.96 1453.29,-162.7 1450.54,-167.23 1453.96,-167.96"/>
<text text-anchor="middle" x="1469.19" y="-199.7" font-family="Times,serif" font-size="14.00">provides</text>
</g>
<!-- 3&#45;&gt;19 -->
<g id="edge18" class="edge">
<title>3&#45;&gt;19</title>
<path fill="none" stroke="#a9a9a9" stroke-width="1.5" d="M1618.94,-248.71C1618.94,-227.55 1618.94,-191.6 1618.94,-167.7"/>
<polygon fill="#a9a9a9" stroke="#a9a9a9" stroke-width="1.5" points="1620.69,-167.7 1618.94,-162.7 1617.19,-167.7 1620.69,-167.7"/>
<text text-anchor="middle" x="1641.82" y="-199.7" font-family="Times,serif" font-size="14.00">supports</text>
</g>
<!-- 4&#45;&gt;18 -->
<g id="edge17" class="edge">
<title>4&#45;&gt;18</title>
<path fill="none" stroke="#a9a9a9" stroke-width="1.5" d="M297.59,-127.04C273.56,-116.53 240.39,-101.88 211.44,-88.5 174.76,-71.55 133.21,-51.47 104.11,-37.27"/>
<polygon fill="#a9a9a9" stroke="#a9a9a9" stroke-width="1.5" points="105.36,-34.95 100.1,-34.33 103.82,-38.1 105.36,-34.95"/>
<text text-anchor="middle" x="235.19" y="-75.2" font-family="Times,serif" font-size="14.00">provides</text>
</g>
<!-- 4&#45;&gt;20 -->
<g id="edge19" class="edge">
<title>4&#45;&gt;20</title>
<path fill="none" stroke="#a9a9a9" stroke-width="1.5" d="M315.19,-124.72C294.52,-102.7 258.22,-64.03 235.72,-40.06"/>
<polygon fill="#a9a9a9" stroke="#a9a9a9" stroke-width="1.5" points="236.83,-38.63 232.13,-36.18 234.28,-41.03 236.83,-38.63"/>
<text text-anchor="middle" x="292.57" y="-75.2" font-family="Times,serif" font-size="14.00">uses</text>
</g>
<!-- 4&#45;&gt;21 -->
<g id="edge20" class="edge">
<title>4&#45;&gt;21</title>
<path fill="none" stroke="#a9a9a9" stroke-width="1.5" d="M330.94,-124.21C330.94,-103.05 330.94,-67.1 330.94,-43.2"/>
<polygon fill="#a9a9a9" stroke="#a9a9a9" stroke-width="1.5" points="332.69,-43.2 330.94,-38.2 329.19,-43.2 332.69,-43.2"/>
<text text-anchor="middle" x="342.57" y="-75.2" font-family="Times,serif" font-size="14.00">uses</text>
</g>
<!-- 4&#45;&gt;22 -->
<g id="edge21" class="edge">
<title>4&#45;&gt;22</title>
<path fill="none" stroke="#a9a9a9" stroke-width="1.5" d="M346.42,-124.72C366.73,-102.7 402.4,-64.03 424.51,-40.06"/>
<polygon fill="#a9a9a9" stroke="#a9a9a9" stroke-width="1.5" points="425.91,-41.05 428.01,-36.18 423.34,-38.67 425.91,-41.05"/>
<text text-anchor="middle" x="406.57" y="-75.2" font-family="Times,serif" font-size="14.00">uses</text>
</g>
<!-- 5&#45;&gt;6 -->
<g id="edge5" class="edge">
<title>5&#45;&gt;6</title>
<path fill="none" stroke="#a9a9a9" stroke-width="1.5" d="M1422.05,-138.39C1343.46,-131.22 1146.62,-112.29 982.94,-88.5 852.02,-69.47 820.1,-59.69 689.94,-36 680.94,-34.36 671.45,-32.62 662.11,-30.9"/>
<polygon fill="#a9a9a9" stroke="#a9a9a9" stroke-width="1.5" points="662.59,-28.84 657.35,-29.66 661.95,-32.29 662.59,-28.84"/>
<text text-anchor="middle" x="1005.44" y="-75.2" font-family="Times,serif" font-size="14.00">includes</text>
</g>
<!-- 5&#45;&gt;7 -->
<g id="edge6" class="edge">
<title>5&#45;&gt;7</title>
<path fill="none" stroke="#a9a9a9" stroke-width="1.5" d="M1422.63,-137.01C1360.6,-128.7 1225.75,-109.85 1112.94,-88.5 1027.32,-72.3 929.29,-49.52 867.03,-34.52"/>
<polygon fill="#a9a9a9" stroke="#a9a9a9" stroke-width="1.5" points="867.64,-32.38 862.37,-32.91 866.82,-35.79 867.64,-32.38"/>
<text text-anchor="middle" x="1135.44" y="-75.2" font-family="Times,serif" font-size="14.00">includes</text>
</g>
<!-- 5&#45;&gt;8 -->
<g id="edge7" class="edge">
<title>5&#45;&gt;8</title>
<path fill="none" stroke="#a9a9a9" stroke-width="1.5" d="M1424.43,-135.04C1378.88,-125.8 1293.63,-107.77 1221.94,-88.5 1160.42,-71.96 1090.43,-49.42 1045.76,-34.55"/>
<polygon fill="#a9a9a9" stroke="#a9a9a9" stroke-width="1.5" points="1046.65,-32.33 1041.36,-32.41 1045.55,-35.65 1046.65,-32.33"/>
<text text-anchor="middle" x="1244.44" y="-75.2" font-family="Times,serif" font-size="14.00">includes</text>
</g>
<!-- 5&#45;&gt;9 -->
<g id="edge8" class="edge">
<title>5&#45;&gt;9</title>
<path fill="none" stroke="#a9a9a9" stroke-width="1.5" d="M1428.19,-131.41C1398.83,-121.01 1352.01,-104.15 1311.94,-88.5 1266.51,-70.75 1214.72,-48.95 1181.03,-34.56"/>
<polygon fill="#a9a9a9" stroke="#a9a9a9" stroke-width="1.5" points="1182.23,-32.31 1176.95,-31.96 1180.86,-35.53 1182.23,-32.31"/>
<text text-anchor="middle" x="1334.44" y="-75.2" font-family="Times,serif" font-size="14.00">includes</text>
</g>
<!-- 5&#45;&gt;10 -->
<g id="edge9" class="edge">
<title>5&#45;&gt;10</title>
<path fill="none" stroke="#a9a9a9" stroke-width="1.5" d="M1437.48,-126.97C1408.45,-105.28 1353.66,-64.35 1320.51,-39.59"/>
<polygon fill="#a9a9a9" stroke="#a9a9a9" stroke-width="1.5" points="1321.04,-38.05 1315.98,-36.46 1318.94,-40.86 1321.04,-38.05"/>
<text text-anchor="middle" x="1407.44" y="-75.2" font-family="Times,serif" font-size="14.00">includes</text>
</g>
<!-- 5&#45;&gt;11 -->
<g id="edge10" class="edge">
<title>5&#45;&gt;11</title>
<path fill="none" stroke="#a9a9a9" stroke-width="1.5" d="M1456.94,-124.21C1456.94,-103.05 1456.94,-67.1 1456.94,-43.2"/>
<polygon fill="#a9a9a9" stroke="#a9a9a9" stroke-width="1.5" points="1458.69,-43.2 1456.94,-38.2 1455.19,-43.2 1458.69,-43.2"/>
<text text-anchor="middle" x="1479.44" y="-75.2" font-family="Times,serif" font-size="14.00">includes</text>
</g>
<!-- 5&#45;&gt;12 -->
<g id="edge11" class="edge">
<title>5&#45;&gt;12</title>
<path fill="none" stroke="#a9a9a9" stroke-width="1.5" d="M1473.86,-126.48C1498.66,-104.47 1544.92,-63.41 1572.52,-38.9"/>
<polygon fill="#a9a9a9" stroke="#a9a9a9" stroke-width="1.5" points="1573.87,-40.16 1576.45,-35.53 1571.55,-37.54 1573.87,-40.16"/>
<text text-anchor="middle" x="1557.44" y="-75.2" font-family="Times,serif" font-size="14.00">includes</text>
</g>
<!-- 5&#45;&gt;13 -->
<g id="edge12" class="edge">
<title>5&#45;&gt;13</title>
<path fill="none" stroke="#a9a9a9" stroke-width="1.5" d="M1485.18,-131.31C1512.2,-121.29 1553.91,-105.12 1588.94,-88.5 1622.79,-72.44 1660.23,-51.35 1685.43,-36.63"/>
<polygon fill="#a9a9a9" stroke="#a9a9a9" stroke-width="1.5" points="1686.82,-38.25 1690.24,-34.21 1685.04,-35.23 1686.82,-38.25"/>
<text text-anchor="middle" x="1642.44" y="-75.2" font-family="Times,serif" font-size="14.00">includes</text>
</g>
<!-- 5&#45;&gt;14 -->
<g id="edge13" class="edge">
<title>5&#45;&gt;14</title>
<path fill="none" stroke="#a9a9a9" stroke-width="1.5" d="M1488.58,-134.21C1539.98,-122.31 1639.32,-98.96 1673.94,-88.5 1725.59,-72.89 1783.69,-51.28 1822.31,-36.32"/>
<polygon fill="#a9a9a9" stroke="#a9a9a9" stroke-width="1.5" points="1822.79,-37.23 1826.82,-33.79 1821.52,-33.97 1822.79,-37.23"/>
<text text-anchor="middle" x="1743.44" y="-75.2" font-family="Times,serif" font-size="14.00">includes</text>
</g>
<!-- 5&#45;&gt;15 -->
<g id="edge14" class="edge">
<title>5&#45;&gt;15</title>
<path fill="none" stroke="#a9a9a9" stroke-width="1.5" d="M1488.72,-134.08C1502.84,-130.91 1519.67,-127.31 1534.94,-124.5 1641.03,-105.01 1669.26,-110.07 1774.94,-88.5 1851.04,-72.97 1937.85,-49.35 1991.53,-34.05"/>
<polygon fill="#a9a9a9" stroke="#a9a9a9" stroke-width="1.5" points="1991.9,-35.19 1996.23,-32.13 1990.94,-31.82 1991.9,-35.19"/>
<text text-anchor="middle" x="1863.44" y="-75.2" font-family="Times,serif" font-size="14.00">includes</text>
</g>
<!-- 5&#45;&gt;16 -->
<g id="edge15" class="edge">
<title>5&#45;&gt;16</title>
<path fill="none" stroke="#a9a9a9" stroke-width="1.5" d="M1488.29,-133.81C1502.46,-130.55 1519.47,-126.95 1534.94,-124.5 1693.76,-99.34 1736.18,-114 1894.94,-88.5 2001.03,-71.46 2027.23,-64.11 2130.94,-36 2136.76,-34.42 2142.9,-32.6 2148.84,-30.75"/>
<polygon fill="#a9a9a9" stroke="#a9a9a9" stroke-width="1.5" points="2148.96,-31.92 2153.2,-28.75 2147.91,-28.58 2148.96,-31.92"/>
<text text-anchor="middle" x="2007.44" y="-75.2" font-family="Times,serif" font-size="14.00">includes</text>
</g>
<!-- 5&#45;&gt;17 -->
<g id="edge16" class="edge">
<title>5&#45;&gt;17</title>
<path fill="none" stroke="#a9a9a9" stroke-width="1.5" d="M1488.25,-133.6C1502.43,-130.3 1519.44,-126.73 1534.94,-124.5 1757.22,-92.51 1817.35,-124.94 2038.94,-88.5 2119.17,-75.31 2210.39,-49.06 2262.75,-32.86"/>
<polygon fill="#a9a9a9" stroke="#a9a9a9" stroke-width="1.5" points="2263,-34 2267.26,-30.84 2261.96,-30.65 2263,-34"/>
<text text-anchor="middle" x="2135.44" y="-75.2" font-family="Times,serif" font-size="14.00">includes</text>
</g>
<!-- 1 -->
<g id="node1" class="node">
<title>1</title>
<ellipse fill="none" stroke="red" cx="1524.94" cy="-391.5" rx="73.62" ry="18"/>
<text text-anchor="middle" x="1524.94" y="-387.23" font-family="Times,serif" font-size="12.00">LSP in programming</text>
</g>
<!-- 2 -->
<g id="node2" class="node">
<title>2</title>
<ellipse fill="none" stroke="blue" cx="1430.94" cy="-267" rx="108.92" ry="18"/>
<text text-anchor="middle" x="1430.94" y="-262.73" font-family="Times,serif" font-size="12.00">Language Server Protocol (LSP)</text>
</g>
<!-- 3 -->
<g id="node3" class="node">
<title>3</title>
<ellipse fill="none" stroke="blue" cx="1618.94" cy="-267" rx="43.57" ry="18"/>
<text text-anchor="middle" x="1618.94" y="-262.73" font-family="Times,serif" font-size="12.00">Editor/IDE</text>
</g>
<!-- 4 -->
<g id="node4" class="node">
<title>4</title>
<ellipse fill="none" stroke="blue" cx="330.94" cy="-142.5" rx="61.69" ry="18"/>
<text text-anchor="middle" x="330.94" y="-138.22" font-family="Times,serif" font-size="12.00">Language Server</text>
</g>
<!-- 5 -->
<g id="node5" class="node">
<title>5</title>
<ellipse fill="none" stroke="blue" cx="1456.94" cy="-142.5" rx="35.46" ry="18"/>
<text text-anchor="middle" x="1456.94" y="-138.22" font-family="Times,serif" font-size="12.00">Features</text>
</g>
<!-- 6 -->
<g id="node6" class="node">
<title>6</title>
<ellipse fill="none" stroke="blue" cx="597.94" cy="-18" rx="74.1" ry="18"/>
<text text-anchor="middle" x="597.94" y="-13.72" font-family="Times,serif" font-size="12.00">Text Document Sync</text>
</g>
<!-- 7 -->
<g id="node7" class="node">
<title>7</title>
<ellipse fill="none" stroke="blue" cx="803.94" cy="-18" rx="96.04" ry="18"/>
<text text-anchor="middle" x="803.94" y="-13.72" font-family="Times,serif" font-size="12.00">Language&#45;Specific Analyzer</text>
</g>
<!-- 8 -->
<g id="node8" class="node">
<title>8</title>
<ellipse fill="none" stroke="blue" cx="999.94" cy="-18" rx="63.6" ry="18"/>
<text text-anchor="middle" x="999.94" y="-13.72" font-family="Times,serif" font-size="12.00">Code Completion</text>
</g>
<!-- 9 -->
<g id="node9" class="node">
<title>9</title>
<ellipse fill="none" stroke="blue" cx="1144.94" cy="-18" rx="45.48" ry="18"/>
<text text-anchor="middle" x="1144.94" y="-13.72" font-family="Times,serif" font-size="12.00">Diagnostics</text>
</g>
<!-- 10 -->
<g id="node10" class="node">
<title>10</title>
<ellipse fill="none" stroke="blue" cx="1292.94" cy="-18" rx="66.46" ry="18"/>
<text text-anchor="middle" x="1292.94" y="-13.72" font-family="Times,serif" font-size="12.00">Hover Information</text>
</g>
<!-- 11 -->
<g id="node11" class="node">
<title>11</title>
<ellipse fill="none" stroke="blue" cx="1456.94" cy="-18" rx="61.22" ry="18"/>
<text text-anchor="middle" x="1456.94" y="-13.72" font-family="Times,serif" font-size="12.00">Code Formatting</text>
</g>
<!-- 12 -->
<g id="node12" class="node">
<title>12</title>
<ellipse fill="none" stroke="blue" cx="1594.94" cy="-18" rx="40.71" ry="18"/>
<text text-anchor="middle" x="1594.94" y="-13.72" font-family="Times,serif" font-size="12.00">Definition</text>
</g>
<!-- 13 -->
<g id="node13" class="node">
<title>13</title>
<ellipse fill="none" stroke="blue" cx="1714.94" cy="-18" rx="43.57" ry="18"/>
<text text-anchor="middle" x="1714.94" y="-13.72" font-family="Times,serif" font-size="12.00">References</text>
</g>
<!-- 14 -->
<g id="node14" class="node">
<title>14</title>
<ellipse fill="none" stroke="blue" cx="1865.94" cy="-18" rx="71.23" ry="18"/>
<text text-anchor="middle" x="1865.94" y="-13.72" font-family="Times,serif" font-size="12.00">Workspace Symbols</text>
</g>
<!-- 15 -->
<g id="node15" class="node">
<title>15</title>
<ellipse fill="none" stroke="blue" cx="2042.94" cy="-18" rx="69.8" ry="18"/>
<text text-anchor="middle" x="2042.94" y="-13.72" font-family="Times,serif" font-size="12.00">Document Symbols</text>
</g>
<!-- 16 -->
<g id="node16" class="node">
<title>16</title>
<ellipse fill="none" stroke="blue" cx="2183.94" cy="-18" rx="34.98" ry="18"/>
<text text-anchor="middle" x="2183.94" y="-13.72" font-family="Times,serif" font-size="12.00">Rename</text>
</g>
<!-- 17 -->
<g id="node17" class="node">
<title>17</title>
<ellipse fill="none" stroke="blue" cx="2305.94" cy="-18" rx="51.2" ry="18"/>
<text text-anchor="middle" x="2305.94" y="-13.72" font-family="Times,serif" font-size="12.00">Code Actions</text>
</g>
<!-- 18 -->
<g id="node18" class="node">
<title>18</title>
<ellipse fill="none" stroke="blue" cx="66.94" cy="-18" rx="66.94" ry="18"/>
<text text-anchor="middle" x="66.94" y="-13.72" font-family="Times,serif" font-size="12.00">Server Capabilities</text>
</g>
<!-- 19 -->
<g id="node19" class="node">
<title>19</title>
<ellipse fill="none" stroke="blue" cx="1618.94" cy="-142.5" rx="65.51" ry="18"/>
<text text-anchor="middle" x="1618.94" y="-138.22" font-family="Times,serif" font-size="12.00">Client Capabilities</text>
</g>
<!-- 20 -->
<g id="node20" class="node">
<title>20</title>
<ellipse fill="none" stroke="blue" cx="215.94" cy="-18" rx="45.95" ry="18"/>
<text text-anchor="middle" x="215.94" y="-13.72" font-family="Times,serif" font-size="12.00">JSON&#45;RPC</text>
</g>
<!-- 21 -->
<g id="node21" class="node">
<title>21</title>
<ellipse fill="none" stroke="blue" cx="330.94" cy="-18" rx="33.07" ry="18"/>
<text text-anchor="middle" x="330.94" y="-13.72" font-family="Times,serif" font-size="12.00">TCP/IP</text>
</g>
<!-- 22 -->
<g id="node22" class="node">
<title>22</title>
<ellipse fill="none" stroke="blue" cx="443.94" cy="-18" rx="44.04" ry="18"/>
<text text-anchor="middle" x="443.94" y="-13.72" font-family="Times,serif" font-size="12.00">WebSocket</text>
</g>
</g>
</svg>
